<?xml version="1.0" encoding="UTF-8"?>
<svg width="306px" height="70px" viewBox="0 0 306 70" version="1.1" xmlns="http://www.w3.org/2000/svg" xmlns:xlink="http://www.w3.org/1999/xlink">
    <!-- Generator: Sketch 42 (36781) - http://www.bohemiancoding.com/sketch -->
    <title>Group 2</title>
    <desc>Created with Sketch.</desc>
    <defs></defs>
    <g id="Page-1" stroke="none" stroke-width="1" fill="none" fill-rule="evenodd">
        <g id="Group-2">
            <g id="Group" transform="translate(50.000000, 0.000000)" fill="#3C3C3C">
                <path d="M32.6953125,34.4882812 L32.6953125,47.25 C32.6953125,49.2656351 32.2382858,50.7773387 31.3242187,51.7851562 C30.4101517,52.7929738 29.2031325,53.296875 27.703125,53.296875 C26.2499927,53.296875 25.0722701,52.7929738 24.1699219,51.7851562 C23.2675736,50.7773387 22.8164062,49.2656351 22.8164062,47.25 L22.8164062,31.9570312 C22.8164062,29.5429567 22.7343758,27.6679754 22.5703125,26.3320312 C22.4062492,24.9960871 21.9609411,23.9003949 21.234375,23.0449219 C20.5078089,22.1894488 19.3593829,21.7617188 17.7890625,21.7617188 C14.6484218,21.7617188 12.5800831,22.839833 11.5839844,24.9960938 C10.5878856,27.1523545 10.0898437,30.2460736 10.0898437,34.2773438 L10.0898437,47.25 C10.0898437,49.2421975 9.63867639,50.7480418 8.73632812,51.7675781 C7.83397986,52.7871145 6.64453863,53.296875 5.16796875,53.296875 C3.71483648,53.296875 2.52539525,52.7871145 1.59960937,51.7675781 C0.673823496,50.7480418 0.2109375,49.2421975 0.2109375,47.25 L0.2109375,19.7929688 C0.2109375,17.9882722 0.626948965,16.6171922 1.45898437,15.6796875 C2.29101979,14.7421828 3.38671195,14.2734375 4.74609375,14.2734375 C6.05860031,14.2734375 7.15429248,14.7128862 8.03320312,15.5917969 C8.91211377,16.4707075 9.3515625,17.683586 9.3515625,19.2304688 L9.3515625,20.1445312 C11.0156333,18.1523338 12.7968655,16.6875047 14.6953125,15.75 C16.5937595,14.8124953 18.7031134,14.34375 21.0234375,14.34375 C23.4375121,14.34375 25.5117101,14.8242139 27.2460937,15.7851562 C28.9804774,16.7460986 30.4101506,18.199209 31.5351562,20.1445312 C33.1523518,18.1757714 34.8867095,16.7168016 36.7382812,15.7675781 C38.589853,14.8183546 40.6406137,14.34375 42.890625,14.34375 C45.5156381,14.34375 47.7773343,14.8593698 49.6757812,15.890625 C51.5742282,16.9218802 52.9921828,18.3984279 53.9296875,20.3203125 C54.7500041,22.0546962 55.1601562,24.7851376 55.1601562,28.5117188 L55.1601562,47.25 C55.1601562,49.2656351 54.7031296,50.7773387 53.7890625,51.7851562 C52.8749954,52.7929738 51.6679762,53.296875 50.1679687,53.296875 C48.7148365,53.296875 47.5253953,52.7871145 46.5996094,51.7675781 C45.6738235,50.7480418 45.2109375,49.2421975 45.2109375,47.25 L45.2109375,31.1132812 C45.2109375,29.0507709 45.1230478,27.3984437 44.9472656,26.15625 C44.7714835,24.9140563 44.2968789,23.871098 43.5234375,23.0273438 C42.7499961,22.1835895 41.5781329,21.7617188 40.0078125,21.7617188 C38.7421812,21.7617188 37.5410213,22.136715 36.4042969,22.8867188 C35.2675724,23.6367225 34.3828157,24.6445249 33.75,25.9101562 C33.0468715,27.5273518 32.6953125,30.3866982 32.6953125,34.4882812 Z M91.265625,36.140625 L72.4921875,36.140625 C72.5156251,38.3203234 72.9550738,40.2421792 73.8105469,41.90625 C74.6660199,43.5703208 75.8027273,44.8242145 77.2207031,45.6679688 C78.638679,46.511723 80.2031164,46.9335938 81.9140625,46.9335938 C83.0625057,46.9335938 84.1113234,46.7988295 85.0605469,46.5292969 C86.0097704,46.2597643 86.929683,45.8378935 87.8203125,45.2636719 C88.710942,44.6894503 89.5312462,44.074222 90.28125,43.4179688 C91.0312538,42.7617155 92.0039003,41.8710994 93.1992188,40.7460938 C93.6914087,40.3242166 94.3945267,40.1132812 95.3085938,40.1132812 C96.2929737,40.1132812 97.0898407,40.3828098 97.6992188,40.921875 C98.3085968,41.4609402 98.6132812,42.2226513 98.6132812,43.2070312 C98.6132812,44.0742231 98.2734409,45.0878848 97.59375,46.2480469 C96.9140591,47.4082089 95.8886787,48.521479 94.5175781,49.5878906 C93.1464775,50.6543022 91.4238385,51.539059 89.3496094,52.2421875 C87.2753803,52.945316 84.8906385,53.296875 82.1953125,53.296875 C76.0312192,53.296875 71.2382984,51.5390801 67.8164062,48.0234375 C64.3945141,44.5077949 62.6835938,39.7383114 62.6835938,33.7148438 C62.6835938,30.8788921 63.1054645,28.248059 63.9492188,25.8222656 C64.792973,23.3964722 66.0234294,21.3164149 67.640625,19.5820312 C69.2578206,17.8476476 71.2499882,16.5175828 73.6171875,15.5917969 C75.9843868,14.666011 78.6093606,14.203125 81.4921875,14.203125 C85.2422062,14.203125 88.458971,14.9941327 91.1425781,16.5761719 C93.8261853,18.158211 95.8359308,20.2031125 97.171875,22.7109375 C98.5078192,25.2187625 99.1757812,27.7734245 99.1757812,30.375 C99.1757812,32.7890746 98.4843819,34.3535121 97.1015625,35.0683594 C95.7187431,35.7832067 93.77345,36.140625 91.265625,36.140625 Z M72.4921875,30.6914062 L89.8945312,30.6914062 C89.6601551,27.4101398 88.7753983,24.9550863 87.2402344,23.3261719 C85.7050704,21.6972575 83.6836063,20.8828125 81.1757812,20.8828125 C78.7851443,20.8828125 76.8222733,21.7089761 75.2871094,23.3613281 C73.7519454,25.0136801 72.8203141,27.4570151 72.4921875,30.6914062 Z M107.261719,47.4609375 L107.261719,5.8359375 C107.261719,3.91405289 107.689449,2.46094242 108.544922,1.4765625 C109.400395,0.492182578 110.55468,0 112.007812,0 C113.460945,0 114.632808,0.486323262 115.523438,1.45898438 C116.414067,2.43164549 116.859375,3.89061527 116.859375,5.8359375 L116.859375,47.4609375 C116.859375,49.4062597 116.408208,50.8652295 115.505859,51.8378906 C114.603511,52.8105517 113.437507,53.296875 112.007812,53.296875 C110.601555,53.296875 109.458989,52.7929738 108.580078,51.7851562 C107.701167,50.7773387 107.261719,49.3359469 107.261719,47.4609375 Z M153.5625,36.140625 L134.789062,36.140625 C134.8125,38.3203234 135.251949,40.2421792 136.107422,41.90625 C136.962895,43.5703208 138.099602,44.8242145 139.517578,45.6679688 C140.935554,46.511723 142.499991,46.9335938 144.210938,46.9335938 C145.359381,46.9335938 146.408198,46.7988295 147.357422,46.5292969 C148.306645,46.2597643 149.226558,45.8378935 150.117188,45.2636719 C151.007817,44.6894503 151.828121,44.074222 152.578125,43.4179688 C153.328129,42.7617155 154.300775,41.8710994 155.496094,40.7460938 C155.988284,40.3242166 156.691402,40.1132812 157.605469,40.1132812 C158.589849,40.1132812 159.386716,40.3828098 159.996094,40.921875 C160.605472,41.4609402 160.910156,42.2226513 160.910156,43.2070312 C160.910156,44.0742231 160.570316,45.0878848 159.890625,46.2480469 C159.210934,47.4082089 158.185554,48.521479 156.814453,49.5878906 C155.443353,50.6543022 153.720713,51.539059 151.646484,52.2421875 C149.572255,52.945316 147.187513,53.296875 144.492188,53.296875 C138.328094,53.296875 133.535173,51.5390801 130.113281,48.0234375 C126.691389,44.5077949 124.980469,39.7383114 124.980469,33.7148438 C124.980469,30.8788921 125.40234,28.248059 126.246094,25.8222656 C127.089848,23.3964722 128.320304,21.3164149 129.9375,19.5820312 C131.554696,17.8476476 133.546863,16.5175828 135.914062,15.5917969 C138.281262,14.666011 140.906236,14.203125 143.789062,14.203125 C147.539081,14.203125 150.755846,14.9941327 153.439453,16.5761719 C156.12306,18.158211 158.132806,20.2031125 159.46875,22.7109375 C160.804694,25.2187625 161.472656,27.7734245 161.472656,30.375 C161.472656,32.7890746 160.781257,34.3535121 159.398438,35.0683594 C158.015618,35.7832067 156.070325,36.140625 153.5625,36.140625 Z M134.789062,30.6914062 L152.191406,30.6914062 C151.95703,27.4101398 151.072273,24.9550863 149.537109,23.3261719 C148.001945,21.6972575 145.980481,20.8828125 143.472656,20.8828125 C141.082019,20.8828125 139.119148,21.7089761 137.583984,23.3613281 C136.04882,25.0136801 135.117189,27.4570151 134.789062,30.6914062 Z M170.085938,15.1171875 L171.140625,15.1171875 L171.140625,9.3515625 C171.140625,7.80467977 171.18164,6.59180127 171.263672,5.71289062 C171.345704,4.83397998 171.574217,4.07812816 171.949219,3.4453125 C172.324221,2.78905922 172.863278,2.25586143 173.566406,1.84570312 C174.269535,1.43554482 175.054683,1.23046875 175.921875,1.23046875 C177.140631,1.23046875 178.242183,1.68749543 179.226562,2.6015625 C179.882816,3.21094055 180.298827,3.95507373 180.474609,4.83398438 C180.650392,5.71289502 180.738281,6.96092941 180.738281,8.578125 L180.738281,15.1171875 L184.253906,15.1171875 C185.613288,15.1171875 186.650387,15.4394499 187.365234,16.0839844 C188.080082,16.7285188 188.4375,17.5546825 188.4375,18.5625 C188.4375,19.8515689 187.927739,20.7539037 186.908203,21.2695312 C185.888667,21.7851588 184.429697,22.0429688 182.53125,22.0429688 L180.738281,22.0429688 L180.738281,39.6914062 C180.738281,41.1914137 180.791015,42.3456991 180.896484,43.1542969 C181.001954,43.9628947 181.283201,44.6191381 181.740234,45.1230469 C182.197268,45.6269556 182.941401,45.8789062 183.972656,45.8789062 C184.535159,45.8789062 185.29687,45.7792979 186.257812,45.5800781 C187.218755,45.3808584 187.968747,45.28125 188.507812,45.28125 C189.281254,45.28125 189.978513,45.5917938 190.599609,46.2128906 C191.220706,46.8339875 191.53125,47.6015579 191.53125,48.515625 C191.53125,50.0625077 190.687508,51.2460896 189,52.0664062 C187.312492,52.8867229 184.886735,53.296875 181.722656,53.296875 C178.722641,53.296875 176.449226,52.7929738 174.902344,51.7851562 C173.355461,50.7773387 172.341799,49.3828214 171.861328,47.6015625 C171.380857,45.8203036 171.140625,43.4414211 171.140625,40.4648438 L171.140625,22.0429688 L169.875,22.0429688 C168.492181,22.0429688 167.437504,21.714847 166.710938,21.0585938 C165.984371,20.4023405 165.621094,19.5703175 165.621094,18.5625 C165.621094,17.5546825 166.001949,16.7285188 166.763672,16.0839844 C167.525394,15.4394499 168.632805,15.1171875 170.085938,15.1171875 Z M195.574219,15.1171875 L196.628906,15.1171875 L196.628906,9.3515625 C196.628906,7.80467977 196.669921,6.59180127 196.751953,5.71289062 C196.833985,4.83397998 197.062498,4.07812816 197.4375,3.4453125 C197.812502,2.78905922 198.351559,2.25586143 199.054688,1.84570312 C199.757816,1.43554482 200.542964,1.23046875 201.410156,1.23046875 C202.628912,1.23046875 203.730464,1.68749543 204.714844,2.6015625 C205.371097,3.21094055 205.787108,3.95507373 205.962891,4.83398438 C206.138673,5.71289502 206.226562,6.96092941 206.226562,8.578125 L206.226562,15.1171875 L209.742188,15.1171875 C211.101569,15.1171875 212.138668,15.4394499 212.853516,16.0839844 C213.568363,16.7285188 213.925781,17.5546825 213.925781,18.5625 C213.925781,19.8515689 213.416021,20.7539037 212.396484,21.2695312 C211.376948,21.7851588 209.917978,22.0429688 208.019531,22.0429688 L206.226562,22.0429688 L206.226562,39.6914062 C206.226562,41.1914137 206.279296,42.3456991 206.384766,43.1542969 C206.490235,43.9628947 206.771482,44.6191381 207.228516,45.1230469 C207.685549,45.6269556 208.429682,45.8789062 209.460938,45.8789062 C210.02344,45.8789062 210.785151,45.7792979 211.746094,45.5800781 C212.707036,45.3808584 213.457029,45.28125 213.996094,45.28125 C214.769535,45.28125 215.466794,45.5917938 216.087891,46.2128906 C216.708987,46.8339875 217.019531,47.6015579 217.019531,48.515625 C217.019531,50.0625077 216.17579,51.2460896 214.488281,52.0664062 C212.800773,52.8867229 210.375016,53.296875 207.210938,53.296875 C204.210922,53.296875 201.937508,52.7929738 200.390625,51.7851562 C198.843742,50.7773387 197.830081,49.3828214 197.349609,47.6015625 C196.869138,45.8203036 196.628906,43.4414211 196.628906,40.4648438 L196.628906,22.0429688 L195.363281,22.0429688 C193.980462,22.0429688 192.925785,21.714847 192.199219,21.0585938 C191.472653,20.4023405 191.109375,19.5703175 191.109375,18.5625 C191.109375,17.5546825 191.490231,16.7285188 192.251953,16.0839844 C193.013676,15.4394499 194.121086,15.1171875 195.574219,15.1171875 Z M247.324219,36.140625 L228.550781,36.140625 C228.574219,38.3203234 229.013668,40.2421792 229.869141,41.90625 C230.724614,43.5703208 231.861321,44.8242145 233.279297,45.6679688 C234.697273,46.511723 236.26171,46.9335938 237.972656,46.9335938 C239.121099,46.9335938 240.169917,46.7988295 241.119141,46.5292969 C242.068364,46.2597643 242.988277,45.8378935 243.878906,45.2636719 C244.769536,44.6894503 245.58984,44.074222 246.339844,43.4179688 C247.089848,42.7617155 248.062494,41.8710994 249.257812,40.7460938 C249.750002,40.3242166 250.45312,40.1132812 251.367188,40.1132812 C252.351567,40.1132812 253.148434,40.3828098 253.757812,40.921875 C254.367191,41.4609402 254.671875,42.2226513 254.671875,43.2070312 C254.671875,44.0742231 254.332035,45.0878848 253.652344,46.2480469 C252.972653,47.4082089 251.947272,48.521479 250.576172,49.5878906 C249.205071,50.6543022 247.482432,51.539059 245.408203,52.2421875 C243.333974,52.945316 240.949232,53.296875 238.253906,53.296875 C232.089813,53.296875 227.296892,51.5390801 223.875,48.0234375 C220.453108,44.5077949 218.742188,39.7383114 218.742188,33.7148438 C218.742188,30.8788921 219.164058,28.248059 220.007812,25.8222656 C220.851567,23.3964722 222.082023,21.3164149 223.699219,19.5820312 C225.316414,17.8476476 227.308582,16.5175828 229.675781,15.5917969 C232.042981,14.666011 234.667954,14.203125 237.550781,14.203125 C241.3008,14.203125 244.517565,14.9941327 247.201172,16.5761719 C249.884779,18.158211 251.894525,20.2031125 253.230469,22.7109375 C254.566413,25.2187625 255.234375,27.7734245 255.234375,30.375 C255.234375,32.7890746 254.542976,34.3535121 253.160156,35.0683594 C251.777337,35.7832067 249.832044,36.140625 247.324219,36.140625 Z M228.550781,30.6914062 L245.953125,30.6914062 C245.718749,27.4101398 244.833992,24.9550863 243.298828,23.3261719 C241.763664,21.6972575 239.7422,20.8828125 237.234375,20.8828125 C234.843738,20.8828125 232.880867,21.7089761 231.345703,23.3613281 C229.810539,25.0136801 228.878908,27.4570151 228.550781,30.6914062 Z" id="omelette"></path>
            </g>
            <path d="M14.314243,55.9653209 C17.2766279,57.2735133 20.5534739,58 24,58 C37.254834,58 48,47.254834 48,34 C48,20.745166 37.254834,10 24,10 C10.745166,10 0,20.745166 0,34 C0,40.9289288 2.93627507,47.1720538 7.63239741,51.5529472 L0.739559348,63.0245561 C-0.398785987,64.9190809 0.217151298,67.371132 2.11075301,68.5089227 C4.00050162,69.6443983 6.46058539,69.0360021 7.59689775,67.1448607 L14.314243,55.9653209 Z" id="Combined-Shape" fill="#3C3C3C"></path>
            <path d="M43.2148438,33.7851562 C43.2148438,36.6445455 42.7695357,39.2812379 41.8789062,41.6953125 C40.9882768,44.1093871 39.6992272,46.1835851 38.0117188,47.9179688 C36.3242103,49.6523524 34.3086055,50.9824172 31.9648438,51.9082031 C29.621082,52.833989 26.9843896,53.296875 24.0546875,53.296875 C21.148423,53.296875 18.5351679,52.8281297 16.2148438,51.890625 C13.8945196,50.9531203 11.8847741,49.6113369 10.1855469,47.8652344 C8.48631963,46.1191319 7.19727002,44.0566525 6.31835938,41.6777344 C5.43944873,39.2988162 5,36.6679832 5,33.7851562 C5,30.8788917 5.44530805,28.2187621 6.3359375,25.8046875 C7.22656695,23.3906129 8.50389793,21.3281336 10.1679688,19.6171875 C11.8320396,17.9062414 13.8476444,16.5878953 16.2148438,15.6621094 C18.5820431,14.7363235 21.1952982,14.2734375 24.0546875,14.2734375 C26.960952,14.2734375 29.5976444,14.7421828 31.9648438,15.6796875 C34.3320431,16.6171922 36.3593666,17.9531163 38.046875,19.6875 C39.7343834,21.4218837 41.0175737,23.484363 41.8964844,25.875 C42.775395,28.265637 43.2148438,30.9023293 43.2148438,33.7851562 Z" id="Path" fill="#FFFFFF"></path>
            <path d="M37,30.1985816 C37,27.7310751 36.3014985,25.8102906 34.9044744,24.4361702 C33.5074504,23.0620499 31.6305245,22.375 29.2736404,22.375 C27.75307,22.375 26.4130875,22.6815868 25.2536526,23.2947695 C24.0942177,23.9079522 23.200896,24.8129373 22.5736607,26.0097518 C21.9464254,27.2065663 21.6328125,28.6028289 21.6328125,30.1985816 C21.6328125,31.7795587 21.9416737,33.1610461 22.5594054,34.3430851 C23.1771372,35.5251241 24.0609554,36.4301092 25.2108868,37.0580674 C26.3608181,37.6860256 27.7150558,38 29.2736404,38 C31.6305245,38 33.5074504,37.3092563 34.9044744,35.9277482 C36.3014985,34.5462401 37,32.636537 37,30.1985816 Z" id="Path" fill="#FFBB00"></path>
        </g>
    </g>
</svg>